<?xml version="1.0" encoding="iso-8859-1"?>
<!-- Generator: Adobe Illustrator 16.0.0, SVG Export Plug-In . SVG Version: 6.00 Build 0)  -->
<!DOCTYPE svg PUBLIC "-//W3C//DTD SVG 1.1//EN" "http://www.w3.org/Graphics/SVG/1.1/DTD/svg11.dtd">
<svg version="1.1" id="Capa_1" xmlns="http://www.w3.org/2000/svg" xmlns:xlink="http://www.w3.org/1999/xlink" x="0px" y="0px"
	 width="94.955px" height="94.954px" viewBox="0 0 94.955 94.954" style="enable-background:new 0 0 94.955 94.954;"
	 xml:space="preserve">
<g>
	<path d="M70.589,76.04c-1.395,0.306-16.695,6.845-16.695-9.084c-0.029-6.011-0.006-12.022-0.006-18.033c0-2.651,0-5.855,0-8.953
		c6.407,0,12.226,0,17.932,0V24.506c-6.028,0-11.734,0-17.836,0c0-8.038,0-16.277,0-24.506c-2.814,0-15.247,0-15.247,0
		s-0.106,2.699-1.094,6.677c-2.577,9.132-9.575,17.751-17.683,20.061c0,4.663,0,8.775,0,13.438c3.65,0,6.676,0,10.732,0
		l-0.008,28.769c0,35.523,40.497,25.674,44.309,21.64L70.589,76.04z"/>
</g>
<g>
</g>
<g>
</g>
<g>
</g>
<g>
</g>
<g>
</g>
<g>
</g>
<g>
</g>
<g>
</g>
<g>
</g>
<g>
</g>
<g>
</g>
<g>
</g>
<g>
</g>
<g>
</g>
<g>
</g>
</svg>
